<?xml version="1.0" standalone="no"?>
<!DOCTYPE svg PUBLIC "-//W3C//DTD SVG 20010904//EN"
 "http://www.w3.org/TR/2001/REC-SVG-20010904/DTD/svg10.dtd">
<svg version="1.0" xmlns="http://www.w3.org/2000/svg"
 width="16.000000pt" height="16.000000pt" viewBox="0 0 16.000000 16.000000"
 preserveAspectRatio="xMidYMid meet">
<metadata>
Created by potrace 1.16, written by Peter Selinger 2001-2019
</metadata>
<g transform="translate(0.000000,16.000000) scale(0.002980,-0.002754)"
fill="#000000" stroke="none">
<path d="M3128 4647 c-2082 -1126 -2207 -1196 -2135 -1197 6 0 406 18 887 41
l875 41 30 27 c17 16 584 515 1260 1111 677 595 1243 1095 1260 1111 l30 29
-30 0 c-21 0 -710 -368 -2177 -1163z"/>
<path d="M4076 4624 c-685 -608 -1246 -1109 -1246 -1112 0 -9 196 -122 211
-122 6 0 446 438 977 973 1452 1461 1360 1367 1331 1367 -20 0 -304 -247
-1273 -1106z"/>
<path d="M1755 3425 c-434 -19 -800 -34 -812 -34 -15 -1 -23 -7 -23 -19 0 -14
218 -143 888 -525 l888 -506 849 29 c468 16 867 30 888 30 29 0 37 4 37 18 0
12 -238 157 -867 527 l-868 510 -95 1 c-52 1 -450 -13 -885 -31z"/>
<path d="M1169 1249 c-640 -644 -1165 -1175 -1167 -1180 -21 -56 145 85 1298
1108 693 614 1260 1120 1260 1124 0 9 -199 119 -216 119 -6 0 -535 -527 -1175
-1171z"/>
<path d="M3473 2316 l-843 -41 -1286 -1135 c-1105 -975 -1282 -1135 -1260
-1138 19 -3 592 303 2169 1156 2244 1214 2226 1204 2105 1201 -24 -1 -422 -20
-885 -43z"/>
</g>
</svg>
